<?xml version="1.0" encoding="UTF-8"?>
<svg id="a" data-name="Layer 1" xmlns="http://www.w3.org/2000/svg" viewBox="0 0 31.54 31.54">
  <defs>
    <style>
      .b {
        fill: #6ecac9;
      }
    </style>
  </defs>
  <path class="b" d="M28.18,6.59c2.03,2.43,3.08,5.61,3.08,9.15,0,7.98-5.33,14.2-15.46,14.2-3.54,0-6.5-.77-8.87-2.09l-3.7,3.7-3.23-3.23,3.42-3.42C1.36,22.45.31,19.25.31,15.74.31,7.76,5.7,1.6,15.8,1.6c3.54,0,6.5.74,8.84,2.06l3.67-3.67,3.23,3.23-3.36,3.36ZM6.96,21.35l14.26-14.26c-1.48-.71-3.3-1.08-5.42-1.08-6.56,0-10.23,3.54-10.23,9.73,0,2.22.46,4.1,1.39,5.61ZM24.61,10.16l-14.26,14.26c1.51.74,3.33,1.11,5.45,1.11,6.53,0,10.16-3.57,10.16-9.79,0-2.22-.46-4.1-1.35-5.57Z"/>
</svg>